<svg
   width="1005.0000000000001"
   height="1382"
   xmlns="http://www.w3.org/2000/svg"
   xmlns:svg="http://www.w3.org/2000/svg">
  <g
     id="g368">
    <path
       d="M679.182,1230.36 C924.211,1249.6 920.362,1126.44 920.362,1126.44 C1083.29,1023.81 960.131,824.968 960.131,824.968 C984.506,596.616 939.605,509.381 939.605,509.381 C960.131,328.495 904.967,282.312 904.967,282.312 C848.521,65.5065 763.851,61.6578 763.851,61.6578 C751.023,38.5661 718.951,16.7572 692.01,7.77708 C665.07,-1.20303 668.919,57.8092 668.919,57.8092 C543.197,-12.7489 536.783,7.77708 536.783,7.77708 C552.177,20.6058 575.269,102.71 575.269,102.71 C512.408,160.439 518.823,300.272 518.823,300.272 C558.592,351.587 581.683,352.87 581.683,352.87 S552.177,437.54 566.289,492.703 C566.289,492.703 296.885,895.525 459.81,1179.04 C459.81,1179.04 300.734,1329.14 146.789,1275.26 C-7.15564,1221.38 146.789,959.669 146.789,959.669 S163.723,898.348 103.171,941.709 C3.10736,1013.55 -64.8849,1354.28 97.2703,1376.09 C548.072,1436.9 592.203,1223.43 679.182,1230.36 z"
       style="fill:#ffffff" />
  </g>
</svg>
